<svg width="890" height="147" viewBox="0 0 890 147" fill="none" xmlns="http://www.w3.org/2000/svg">
<g clip-path="url(#clip0_402_17)">
<path d="M66.76 29.2899C60.14 23.3399 51 20.3599 39.33 20.3599H0V127H14.06V85.2499H39.18C51.24 85.2499 60.51 82.4599 66.98 76.8699C73.45 71.2799 76.68 63.2999 76.68 52.9499C76.68 43.1399 73.37 35.2499 66.76 29.2899ZM56.61 68.4299C52.61 71.9799 46.85 73.7499 39.33 73.7499H14.06V31.8599H40.13C47.12 31.9999 52.61 33.9899 56.61 37.7999C60.62 41.6199 62.62 46.6999 62.62 53.0599C62.62 59.7599 60.62 64.8899 56.61 68.4299Z" fill="white"/>
<path d="M148.15 20.3599V127H162.21V20.3599H148.15Z" fill="white"/>
<path d="M254.56 115.5V20.3599H240.42V127H305.1V115.5H254.56Z" fill="white"/>
<path d="M445.63 43.0301C442.12 35.1901 437.1 29.2101 430.58 25.0801C424.06 20.9601 416.53 18.8901 407.99 18.8901C399.45 18.8901 392.13 20.9801 385.61 25.1601C379.09 29.3301 374.05 35.3501 370.49 43.2101C366.92 51.0701 365.14 60.1301 365.14 70.3801V78.0701C365.24 88.1301 367.08 96.9801 370.67 104.62C374.26 112.27 379.3 118.15 385.79 122.28C392.29 126.4 399.73 128.46 408.13 128.46C416.53 128.46 424.25 126.41 430.69 122.31C437.14 118.21 442.12 112.27 445.63 104.48C449.15 96.6901 450.91 87.5701 450.91 77.1201V70.3801C450.91 59.9801 449.15 50.8701 445.63 43.0301ZM436.92 78.1501C436.77 90.5001 434.21 99.9901 429.23 106.6C424.25 113.22 417.21 116.53 408.13 116.53C399.05 116.53 392.01 113.02 386.86 106.02C381.7 99.0101 379.13 89.3801 379.13 77.1201V69.2901C379.28 57.2701 381.9 47.8901 387 41.1201C392.1 34.3601 399.1 30.9801 407.99 30.9801C416.88 30.9801 424.22 34.3601 429.3 41.1201C434.38 47.8901 436.92 57.5901 436.92 70.2401V78.1501Z" fill="white"/>
<path d="M592.28 0L582.05 19.68L553.87 73.9L515.66 0H0V10H504.37L546.84 87.23V127H560.9V87.23L603.36 10H889.37V0H592.28Z" fill="white"/>
<path d="M744.38 137L699.75 20.3599H687.45L642.79 137H0V147H654.02L671.26 99.0899L693.6 37.7199L715.94 99.0899L733.42 147H889.37V137H744.38Z" fill="white"/>
<path d="M875.37 20.3599V102.9L821.54 20.3599H807.41V127H821.54V44.8199L875.23 127H889.36V20.3599H875.37Z" fill="white"/>
</g>
<defs>
<clipPath id="clip0_402_17">
<rect width="889.37" height="147" fill="white"/>
</clipPath>
</defs>
</svg>
